<?xml version="1.0" standalone="no"?>
<!DOCTYPE svg PUBLIC "-//W3C//DTD SVG 20010904//EN"
 "http://www.w3.org/TR/2001/REC-SVG-20010904/DTD/svg10.dtd">
<svg version="1.0" xmlns="http://www.w3.org/2000/svg"
 width="250.000000pt" height="45.000000pt" viewBox="0 0 250.000000 45.000000"
 preserveAspectRatio="xMidYMid meet">

<g transform="translate(0.000000,45.000000) scale(0.100000,-0.100000)"
fill="#000000" stroke="none">
<path d="M153 441 c-107 -27 -170 -143 -145 -267 23 -110 97 -169 213 -168
121 0 199 74 199 187 l0 47 -115 0 -115 0 0 -25 c0 -25 1 -25 91 -25 89 0 90
0 84 -22 -13 -44 -37 -70 -82 -90 -110 -49 -213 26 -213 154 0 73 25 117 83
146 65 33 118 24 169 -29 24 -25 46 -39 63 -39 30 0 31 14 5 57 -36 60 -152
96 -237 74z"/>
<path d="M1906 435 c-56 -20 -87 -45 -120 -99 -52 -82 -35 -207 36 -273 43
-40 116 -66 169 -60 51 6 117 35 138 61 14 17 12 19 -96 108 -29 24 -52 48
-53 55 0 6 35 43 78 83 75 69 76 71 57 86 -64 51 -138 65 -209 39z"/>
<path d="M548 305 c-29 -16 -48 -44 -48 -69 0 -26 53 -21 65 6 23 52 127 42
133 -13 3 -29 -15 -39 -79 -39 -80 0 -129 -38 -129 -100 0 -45 15 -67 54 -80
46 -15 100 -4 131 27 l25 26 0 -27 c0 -22 4 -26 30 -26 l30 0 0 98 c0 169 -21
204 -123 209 -42 2 -71 -2 -89 -12z m131 -221 c-30 -32 -73 -40 -104 -20 -53
35 -20 81 66 94 l54 7 3 -28 c2 -20 -4 -37 -19 -53z"/>
<path d="M860 165 l0 -155 30 0 30 0 0 110 c0 123 12 150 69 150 53 0 61 -19
61 -141 l0 -109 30 0 30 0 0 105 c0 99 2 107 25 130 29 30 58 32 85 5 18 -18
20 -33 20 -135 l0 -115 31 0 31 0 -4 131 c-3 129 -3 131 -31 155 -39 33 -104
33 -141 -1 l-26 -24 -25 24 c-32 33 -103 35 -131 4 l-18 -20 -8 20 c-5 14 -16
21 -33 21 l-25 0 0 -155z"/>
<path d="M1476 310 c-42 -13 -85 -58 -96 -101 -37 -135 85 -244 215 -194 41
15 85 55 85 76 0 18 -55 8 -78 -13 -34 -33 -103 -32 -136 2 -14 14 -27 36 -28
50 l-3 25 124 3 123 3 -7 37 c-13 72 -53 109 -126 117 -24 2 -57 0 -73 -5z
m115 -56 c9 -8 19 -24 22 -35 5 -18 -1 -19 -89 -19 -87 0 -94 1 -85 18 11 21
40 47 61 55 22 9 71 -1 91 -19z"/>
<path d="M2220 165 l0 -155 30 0 30 0 0 95 c0 131 18 165 90 165 19 0 36 -9
49 -26 18 -23 21 -41 21 -130 l0 -104 30 0 30 0 0 109 c0 59 -5 122 -11 140
-25 70 -149 84 -196 22 -11 -14 -12 -12 -13 12 0 23 -4 27 -30 27 l-30 0 0
-155z"/>
</g>
</svg>
